<svg width="370" height="103" viewBox="0 0 370 103" fill="none" xmlns="http://www.w3.org/2000/svg">
<path d="M87.7365 26.75L44.8683 2L2 26.75M87.7365 26.75V76.25M87.7365 26.75L44.8683 51.5M87.7365 76.25L44.8683 101L2 76.25M87.7365 76.25L66.0859 63.75M2 76.25V26.75M2 76.25L23.6506 63.75M2 26.75L44.8683 51.5M66.0859 63.75V39.25L44.8683 27L23.6506 39.25V63.75M66.0859 63.75L44.8683 76L23.6506 63.75M44.8683 100V51.5" stroke="white" stroke-width="3" stroke-linecap="round" stroke-linejoin="round"/>
<path d="M120.64 76L100.192 29.632H114.016L128.704 67.84H121.888L136.672 29.632H150.016L129.664 76H120.64Z" fill="white"/>
<path d="M173.804 76.96C169.58 76.96 165.772 75.904 162.38 73.792C158.988 71.68 156.332 68.8 154.412 65.152C152.492 61.504 151.532 57.408 151.532 52.864C151.532 48.256 152.492 44.128 154.412 40.48C156.332 36.832 158.988 33.952 162.38 31.84C165.772 29.728 169.58 28.672 173.804 28.672C177.132 28.672 180.108 29.344 182.732 30.688C185.356 32.032 187.436 33.92 188.972 36.352C190.572 38.72 191.436 41.408 191.564 44.416V61.12C191.436 64.192 190.572 66.912 188.972 69.28C187.436 71.648 185.356 73.536 182.732 74.944C180.108 76.288 177.132 76.96 173.804 76.96ZM176.108 65.344C179.628 65.344 182.476 64.192 184.652 61.888C186.828 59.52 187.916 56.48 187.916 52.768C187.916 50.336 187.404 48.192 186.38 46.336C185.42 44.416 184.044 42.944 182.252 41.92C180.524 40.832 178.476 40.288 176.108 40.288C173.804 40.288 171.756 40.832 169.964 41.92C168.236 42.944 166.86 44.416 165.836 46.336C164.876 48.192 164.396 50.336 164.396 52.768C164.396 55.264 164.876 57.472 165.836 59.392C166.86 61.248 168.236 62.72 169.964 63.808C171.756 64.832 173.804 65.344 176.108 65.344ZM187.244 76V63.52L189.26 52.192L187.244 41.056V29.632H199.724V76H187.244Z" fill="white"/>
<path d="M230.625 76.96C226.529 76.96 222.881 76.096 219.681 74.368C216.545 72.64 214.081 70.24 212.289 67.168C210.497 64.096 209.601 60.544 209.601 56.512V29.632H222.273V56.224C222.273 58.144 222.593 59.808 223.233 61.216C223.873 62.56 224.833 63.584 226.113 64.288C227.393 64.992 228.897 65.344 230.625 65.344C233.249 65.344 235.297 64.544 236.769 62.944C238.241 61.344 238.977 59.104 238.977 56.224V29.632H251.553V56.512C251.553 60.608 250.657 64.192 248.865 67.264C247.137 70.336 244.673 72.736 241.473 74.464C238.337 76.128 234.721 76.96 230.625 76.96Z" fill="white"/>
<path d="M261.568 76V6.592H274.144V76H261.568Z" fill="white"/>
<path d="M292.103 76V10.336H304.679V76H292.103ZM281.255 40.672V29.632H315.527V40.672H281.255Z" fill="white"/>
<path d="M324.258 78.784L317.346 71.872L362.37 26.848L369.282 33.76L324.258 78.784ZM343.17 76.96C338.562 76.96 334.37 75.904 330.594 73.792C326.818 71.616 323.842 68.704 321.666 65.056C319.49 61.344 318.402 57.216 318.402 52.672C318.402 48.128 319.49 44.064 321.666 40.48C323.842 36.832 326.818 33.952 330.594 31.84C334.37 29.664 338.562 28.576 343.17 28.576C347.906 28.576 352.13 29.664 355.842 31.84C359.618 33.952 362.594 36.832 364.77 40.48C366.946 44.064 368.034 48.128 368.034 52.672C368.034 57.216 366.946 61.344 364.77 65.056C362.594 68.704 359.618 71.616 355.842 73.792C352.13 75.904 347.906 76.96 343.17 76.96ZM343.17 66.016C345.666 66.016 347.874 65.472 349.794 64.384C351.714 63.232 353.186 61.664 354.21 59.68C355.298 57.632 355.842 55.328 355.842 52.768C355.842 50.144 355.298 47.872 354.21 45.952C353.122 43.968 351.618 42.432 349.698 41.344C347.842 40.192 345.666 39.616 343.17 39.616C340.738 39.616 338.562 40.192 336.642 41.344C334.722 42.432 333.218 43.968 332.13 45.952C331.106 47.872 330.594 50.144 330.594 52.768C330.594 55.328 331.106 57.632 332.13 59.68C333.218 61.664 334.722 63.232 336.642 64.384C338.562 65.472 340.738 66.016 343.17 66.016Z" fill="white"/>
</svg>
