<svg width="372" height="103" viewBox="0 0 372 103" fill="none" xmlns="http://www.w3.org/2000/svg">
<path d="M87.7365 26.75L44.8683 2L2 26.75M87.7365 26.75V76.25M87.7365 26.75L44.8683 51.5M87.7365 76.25L44.8683 101L2 76.25M87.7365 76.25L66.0859 63.75M2 76.25V26.75M2 76.25L23.6506 63.75M2 26.75L23.6183 39.25L44.8683 51.5M66.0859 63.75V39.25L44.8683 27L23.6506 39.25V63.75M66.0859 63.75L44.8683 76L23.6506 63.75M44.8683 100V51.5" stroke="black" stroke-width="3" stroke-linecap="round" stroke-linejoin="round"/>
<path d="M122.64 76L102.192 29.632H116.016L130.704 67.84H123.888L138.672 29.632H152.016L131.664 76H122.64Z" fill="black"/>
<path d="M175.804 76.96C171.58 76.96 167.772 75.904 164.38 73.792C160.988 71.68 158.332 68.8 156.412 65.152C154.492 61.504 153.532 57.408 153.532 52.864C153.532 48.256 154.492 44.128 156.412 40.48C158.332 36.832 160.988 33.952 164.38 31.84C167.772 29.728 171.58 28.672 175.804 28.672C179.132 28.672 182.108 29.344 184.732 30.688C187.356 32.032 189.436 33.92 190.972 36.352C192.572 38.72 193.436 41.408 193.564 44.416V61.12C193.436 64.192 192.572 66.912 190.972 69.28C189.436 71.648 187.356 73.536 184.732 74.944C182.108 76.288 179.132 76.96 175.804 76.96ZM178.108 65.344C181.628 65.344 184.476 64.192 186.652 61.888C188.828 59.52 189.916 56.48 189.916 52.768C189.916 50.336 189.404 48.192 188.38 46.336C187.42 44.416 186.044 42.944 184.252 41.92C182.524 40.832 180.476 40.288 178.108 40.288C175.804 40.288 173.756 40.832 171.964 41.92C170.236 42.944 168.86 44.416 167.836 46.336C166.876 48.192 166.396 50.336 166.396 52.768C166.396 55.264 166.876 57.472 167.836 59.392C168.86 61.248 170.236 62.72 171.964 63.808C173.756 64.832 175.804 65.344 178.108 65.344ZM189.244 76V63.52L191.26 52.192L189.244 41.056V29.632H201.724V76H189.244Z" fill="black"/>
<path d="M232.625 76.96C228.529 76.96 224.881 76.096 221.681 74.368C218.545 72.64 216.081 70.24 214.289 67.168C212.497 64.096 211.601 60.544 211.601 56.512V29.632H224.273V56.224C224.273 58.144 224.593 59.808 225.233 61.216C225.873 62.56 226.833 63.584 228.113 64.288C229.393 64.992 230.897 65.344 232.625 65.344C235.249 65.344 237.297 64.544 238.769 62.944C240.241 61.344 240.977 59.104 240.977 56.224V29.632H253.553V56.512C253.553 60.608 252.657 64.192 250.865 67.264C249.137 70.336 246.673 72.736 243.473 74.464C240.337 76.128 236.721 76.96 232.625 76.96Z" fill="black"/>
<path d="M263.568 76V6.59198H276.144V76H263.568Z" fill="black"/>
<path d="M294.103 76V10.336H306.679V76H294.103ZM283.255 40.672V29.632H317.527V40.672H283.255Z" fill="black"/>
<path d="M326.258 78.784L319.346 71.872L364.37 26.848L371.282 33.76L326.258 78.784ZM345.17 76.96C340.562 76.96 336.37 75.904 332.594 73.792C328.818 71.616 325.842 68.704 323.666 65.056C321.49 61.344 320.402 57.216 320.402 52.672C320.402 48.128 321.49 44.064 323.666 40.48C325.842 36.832 328.818 33.952 332.594 31.84C336.37 29.664 340.562 28.576 345.17 28.576C349.906 28.576 354.13 29.664 357.842 31.84C361.618 33.952 364.594 36.832 366.77 40.48C368.946 44.064 370.034 48.128 370.034 52.672C370.034 57.216 368.946 61.344 366.77 65.056C364.594 68.704 361.618 71.616 357.842 73.792C354.13 75.904 349.906 76.96 345.17 76.96ZM345.17 66.016C347.666 66.016 349.874 65.472 351.794 64.384C353.714 63.232 355.186 61.664 356.21 59.68C357.298 57.632 357.842 55.328 357.842 52.768C357.842 50.144 357.298 47.872 356.21 45.952C355.122 43.968 353.618 42.432 351.698 41.344C349.842 40.192 347.666 39.616 345.17 39.616C342.738 39.616 340.562 40.192 338.642 41.344C336.722 42.432 335.218 43.968 334.13 45.952C333.106 47.872 332.594 50.144 332.594 52.768C332.594 55.328 333.106 57.632 334.13 59.68C335.218 61.664 336.722 63.232 338.642 64.384C340.562 65.472 342.738 66.016 345.17 66.016Z" fill="black"/>
</svg>
