<svg width="373" height="123" viewBox="0 0 373 123" fill="none" xmlns="http://www.w3.org/2000/svg">
<path d="M44.8683 120V71M44.8683 71L2.36826 47M44.8683 71L86.8683 47M2.86826 95L23.8683 83.5M65.8683 83.5L86.3683 95M44.8683 22L87.7365 46.75V96.25L44.8683 121L2 96.25V46.75L44.8683 22ZM44.8683 47L66.0859 59.25V83.75L44.8683 96L23.6506 83.75V59.25L44.8683 47Z" stroke="white" stroke-width="3"/>
<path d="M122.64 96L102.192 49.632H116.016L130.704 87.84H123.888L138.672 49.632H152.016L131.664 96H122.64ZM175.804 96.96C171.58 96.96 167.772 95.904 164.38 93.792C160.988 91.68 158.332 88.8 156.412 85.152C154.492 81.504 153.532 77.408 153.532 72.864C153.532 68.256 154.492 64.128 156.412 60.48C158.332 56.832 160.988 53.952 164.38 51.84C167.772 49.728 171.58 48.672 175.804 48.672C179.132 48.672 182.108 49.344 184.732 50.688C187.356 52.032 189.436 53.92 190.972 56.352C192.572 58.72 193.436 61.408 193.564 64.416V81.12C193.436 84.192 192.572 86.912 190.972 89.28C189.436 91.648 187.356 93.536 184.732 94.944C182.108 96.288 179.132 96.96 175.804 96.96ZM178.108 85.344C181.628 85.344 184.476 84.192 186.652 81.888C188.828 79.52 189.916 76.48 189.916 72.768C189.916 70.336 189.404 68.192 188.38 66.336C187.42 64.416 186.044 62.944 184.252 61.92C182.524 60.832 180.476 60.288 178.108 60.288C175.804 60.288 173.756 60.832 171.964 61.92C170.236 62.944 168.86 64.416 167.836 66.336C166.876 68.192 166.396 70.336 166.396 72.768C166.396 75.264 166.876 77.472 167.836 79.392C168.86 81.248 170.236 82.72 171.964 83.808C173.756 84.832 175.804 85.344 178.108 85.344ZM189.244 96V83.52L191.26 72.192L189.244 61.056V49.632H201.724V96H189.244ZM232.625 96.96C228.529 96.96 224.881 96.096 221.681 94.368C218.545 92.64 216.081 90.24 214.289 87.168C212.497 84.096 211.601 80.544 211.601 76.512V49.632H224.273V76.224C224.273 78.144 224.593 79.808 225.233 81.216C225.873 82.56 226.833 83.584 228.113 84.288C229.393 84.992 230.897 85.344 232.625 85.344C235.249 85.344 237.297 84.544 238.769 82.944C240.241 81.344 240.977 79.104 240.977 76.224V49.632H253.553V76.512C253.553 80.608 252.657 84.192 250.865 87.264C249.137 90.336 246.673 92.736 243.473 94.464C240.337 96.128 236.721 96.96 232.625 96.96ZM263.568 96V26.592H276.144V96H263.568ZM294.103 96V30.336H306.679V96H294.103ZM283.255 60.672V49.632H317.527V60.672H283.255ZM326.258 98.784L319.346 91.872L364.37 46.848L371.282 53.76L326.258 98.784ZM345.17 96.96C340.562 96.96 336.37 95.904 332.594 93.792C328.818 91.616 325.842 88.704 323.666 85.056C321.49 81.344 320.402 77.216 320.402 72.672C320.402 68.128 321.49 64.064 323.666 60.48C325.842 56.832 328.818 53.952 332.594 51.84C336.37 49.664 340.562 48.576 345.17 48.576C349.906 48.576 354.13 49.664 357.842 51.84C361.618 53.952 364.594 56.832 366.77 60.48C368.946 64.064 370.034 68.128 370.034 72.672C370.034 77.216 368.946 81.344 366.77 85.056C364.594 88.704 361.618 91.616 357.842 93.792C354.13 95.904 349.906 96.96 345.17 96.96ZM345.17 86.016C347.666 86.016 349.874 85.472 351.794 84.384C353.714 83.232 355.186 81.664 356.21 79.68C357.298 77.632 357.842 75.328 357.842 72.768C357.842 70.144 357.298 67.872 356.21 65.952C355.122 63.968 353.618 62.432 351.698 61.344C349.842 60.192 347.666 59.616 345.17 59.616C342.738 59.616 340.562 60.192 338.642 61.344C336.722 62.432 335.218 63.968 334.13 65.952C333.106 67.872 332.594 70.144 332.594 72.768C332.594 75.328 333.106 77.632 334.13 79.68C335.218 81.664 336.722 83.232 338.642 84.384C340.562 85.472 342.738 86.016 345.17 86.016Z" fill="white"/>
</svg>
